<svg fill="var(--shape-background)"
  stroke="var(--shape-border-color)"
  stroke-width="var(--shape-border-width)" 
  stroke-linejoin="round"
  viewBox="0 0 100 100"
  xmlns="http://www.w3.org/2000/svg">
    <path d="
    M74.5632 94.52a6.116 6.116 90 01-3.4472-1.0564l-20.7388-13.9a.6116.6116 90 00-.695 0l-20.7388 13.9a6.1716 6.1716 90 01-9.3964-6.6998l6.811-24.0192a.6394.6394 90 00-.2224-.6672L6.5088 46.6484a6.1716 6.1716 90 013.5862-11.12l25.02-.9452a.6394.6394 90 00.556-.417l8.618-23.4354a6.1716 6.1716 90 0111.5926 0l8.618 23.4354a.6394.6394 90 00.556.417l25.02.9452a6.1716 6.1716 90 013.5862 11.12L74.035 62.0774a.6116.6116 90 00-.2224.6672l6.811 24.0192A6.1994 6.1994 90 0174.5632 94.52Z"/>
</svg>